HIERARCHY
ROOT Hips
{
  OFFSET 13.6774 106.653 -34.4427
  CHANNELS 6 Xposition Yposition Zposition Zrotation Xrotation Yrotation
  JOINT ToSpine
  {
    OFFSET -2.69724 7.43032 -0.144315
    CHANNELS 3 Zrotation Xrotation Yrotation
    JOINT Spine
    {
      OFFSET -0.0310711 10.7595 1.96963
      CHANNELS 3 Zrotation Xrotation Yrotation
      JOINT Spine1
      {
        OFFSET 19.9056 3.91189 0.764692
        CHANNELS 3 Zrotation Xrotation Yrotation
        JOINT Neck
        {
          OFFSET 25.9749 7.03908 -0.130764
          CHANNELS 3 Zrotation Xrotation Yrotation
          JOINT Head
          {
            OFFSET 9.52751 0.295786 -0.907742
            CHANNELS 3 Zrotation Xrotation Yrotation
            End Site
            {
              OFFSET 16.4037 0.713936 2.7358
            }
          }
        }
        JOINT LeftShoulder
        {
          OFFSET 17.7449 4.33886 11.7777
          CHANNELS 3 Zrotation Xrotation Yrotation
          JOINT LeftArm
          {
            OFFSET 0.911315 1.27913 9.80584
            CHANNELS 3 Zrotation Xrotation Yrotation
            JOINT LeftForeArm
            {
              OFFSET 28.6126 1.18197 -3.53199
              CHANNELS 3 Zrotation Xrotation Yrotation
              JOINT LeftHand
              {
                OFFSET 27.5088 0.0218783 0.327423
                CHANNELS 3 Zrotation Xrotation Yrotation
                End Site
                {
                  OFFSET 18.6038 -0.000155887 0.382096
                }
              }
            }
          }
        }
        JOINT RightShoulder
        {
          OFFSET 17.1009 2.89543 -12.2328
          CHANNELS 3 Zrotation Xrotation Yrotation
          JOINT RightArm
          {
            OFFSET 1.4228 0.178766 -10.211
            CHANNELS 3 Zrotation Xrotation Yrotation
            JOINT RightForeArm
            {
              OFFSET 28.733 1.87905 2.64907
              CHANNELS 3 Zrotation Xrotation Yrotation
              JOINT RightHand
              {
                OFFSET 27.4588 0.290562 -0.101845
                CHANNELS 3 Zrotation Xrotation Yrotation
                End Site
                {
                  OFFSET 17.8396 -0.255518 -0.000602873
                }
              }
            }
          }
        }
      }
    }
  }
  JOINT LeftUpLeg
  {
    OFFSET -5.61296 -2.22332 -10.2353
    CHANNELS 3 Zrotation Xrotation Yrotation
    JOINT LeftLeg
    {
      OFFSET 2.56703 -44.7417 -7.93097
      CHANNELS 3 Zrotation Xrotation Yrotation
      JOINT LeftFoot
      {
        OFFSET 3.16933 -46.5642 -3.96578
        CHANNELS 3 Zrotation Xrotation Yrotation
        JOINT LeftToeBase
        {
          OFFSET 0.346054 -6.02161 12.8035
          CHANNELS 3 Zrotation Xrotation Yrotation
          End Site
          {
            OFFSET 0.134235 -1.35082 5.13018
          }
        }
      }
    }
  }
  JOINT RightUpLeg
  {
    OFFSET -5.7928 -1.72406 10.6446
    CHANNELS 3 Zrotation Xrotation Yrotation
    JOINT RightLeg
    {
      OFFSET -2.57161 -44.7178 -7.85259
      CHANNELS 3 Zrotation Xrotation Yrotation
      JOINT RightFoot
      {
        OFFSET -3.10148 -46.5936 -4.03391
        CHANNELS 3 Zrotation Xrotation Yrotation
        JOINT RightToeBase
        {
          OFFSET -0.0828122 -6.13587 12.8035
          CHANNELS 3 Zrotation Xrotation Yrotation
          End Site
          {
            OFFSET -0.131328 -1.35082 5.13018
          }
        }
      }
    }
  }
}
MOTION
Frames: 12
Frame Time: 0.03333333333333333
0.0000 93.1000 0.0000 64.7175 -40.7015 -20.3436 -71.1409 -0.0971 87.8921 93.6696 69.1666 -7.9985 4.7726 20.0335 -3.7785 -136.2180 27.3210 -177.0905 175.4179 63.9119 -147.9338 -2.5609 -26.9576 -33.8853 -48.9480 -0.8773 -158.9178 15.3007 20.9556 -36.5566 -1.7498 -0.2943 2.3384 -4.4277 11.9266 45.4026 -61.2327 -2.5354 124.4484 5.3259 -31.8003 19.3759 3.2965 -0.3835 1.7869 -55.0678 20.1197 107.0800 -6.3030 54.9239 -13.3396 -4.2669 -23.0991 -2.2370 8.8471 -20.0104 24.1598 -16.2777 -19.2467 91.0643 2.9918 56.1888 -0.1562 -5.7927 -2.4050 0.0331 1.1779 -10.0481 -6.7284 
0.0000 93.1000 0.0000 65.6139 -39.9828 -21.0402 -71.1452 -0.0527 87.8999 94.8000 69.3822 -8.4642 4.4579 19.9502 -2.4836 -137.1270 27.2486 -177.9227 175.8221 64.2129 -148.1898 -2.7252 -27.0488 -33.5678 -48.6373 -0.3336 -158.9976 14.8656 21.8183 -36.6968 -1.8365 -0.0409 2.2789 -4.3451 12.1639 45.3807 -60.7828 -2.7857 124.2545 5.5288 -30.6971 19.4690 2.8773 -0.0838 1.9023 -54.1115 19.6749 106.7660 -5.7265 56.4793 -12.3207 -3.8780 -22.8746 -2.6268 9.1420 -20.3088 23.5758 -16.7278 -20.2355 90.8583 2.7860 56.2513 -0.4036 -5.3597 -2.5845 0.1905 0.8105 -10.1195 -6.4645 
0.0000 93.1000 0.0000 65.6392 -39.9291 -20.3092 -71.1462 -0.0536 87.9036 94.4739 69.3735 -8.0960 4.2222 19.5386 -2.0543 -136.8666 26.9777 -177.9173 175.1989 64.4348 -146.9097 -2.6050 -26.8562 -32.4826 -48.4654 -0.0121 -160.0884 15.7164 21.6646 -37.6086 -1.9624 -0.0520 2.2503 -4.4269 12.2370 46.3282 -58.9391 -1.5644 124.3645 6.8546 -28.2796 20.3016 3.0279 -0.0689 2.0962 -53.5938 19.8686 106.9074 -6.7698 56.9505 -12.1125 -4.0395 -22.9367 -2.6676 8.9473 -20.1175 23.0155 -16.6249 -20.1199 90.4251 2.4290 56.0592 0.0403 -4.5249 -2.8686 0.2425 1.2294 -9.6202 -6.9505 
0.0000 93.1000 0.0000 65.4781 -40.4294 -20.6014 -71.1489 0.0480 87.9079 93.7529 69.4760 -7.6230 4.4775 19.2514 -1.7531 -138.1039 26.5837 -179.4652 175.3515 64.1116 -146.7022 -2.9254 -26.2698 -31.7318 -49.5658 0.1837 -159.9157 16.1197 22.0454 -38.1529 -1.1950 0.4652 1.6850 -4.4336 11.4282 46.3318 -56.5669 0.1647 123.5283 8.2734 -25.4632 21.9466 2.4621 0.4811 1.6649 -53.3017 21.2314 106.9186 -7.4122 58.4155 -13.4093 -4.2600 -21.9940 -3.0978 10.0602 -21.0441 25.0210 -16.0858 -19.1125 91.9995 3.7878 56.8942 0.9657 -4.0152 -2.5042 0.4331 1.1060 -8.8119 -9.7675 
0.0000 93.1000 0.0000 64.5311 -40.2156 -20.6839 -71.1611 0.0286 87.9361 92.7744 69.2213 -7.3137 4.6072 19.1159 -2.1493 -137.1435 26.4642 -179.4591 176.1954 64.0719 -147.8251 -2.6994 -26.4332 -31.2793 -51.2592 -0.0818 -159.8760 16.9101 21.9847 -39.7061 -0.7792 0.3035 1.4239 -4.3394 11.2489 46.1080 -57.3848 -0.8981 122.4671 11.9906 -24.3357 27.7357 2.6122 0.3443 1.7637 -52.9076 20.9936 106.7447 -7.2527 59.5665 -13.0968 -3.9617 -22.1274 -2.9464 10.0273 -21.2593 25.0643 -15.7213 -18.6169 92.3488 4.1485 58.1431 -0.0426 -4.7413 -2.7597 0.2518 1.2052 -9.0366 -10.0752 
0.0000 93.1000 0.0000 64.3513 -39.7235 -20.0064 -71.1574 0.0942 87.9452 92.5060 68.9118 -6.9818 4.5974 18.9472 -2.3274 -136.9422 26.9636 -180.7065 177.8615 64.4082 -148.1366 -2.9246 -26.0241 -30.2416 -53.5972 -0.4587 -161.0054 18.7574 21.8818 -43.2555 -0.6197 0.5819 0.6152 -4.1476 11.3276 45.2735 -61.2678 -2.9249 121.6631 17.3621 -25.2278 36.4002 1.7931 0.7070 1.3845 -52.6099 20.8833 105.9334 -6.6952 58.4725 -13.5050 -4.3840 -22.0040 -3.0969 9.9163 -21.1154 25.1969 -14.5922 -19.2342 90.5677 3.4044 59.4764 -0.6145 -4.9745 -4.6357 0.5195 1.4942 -8.4169 -10.6471 
0.0000 93.1000 0.0000 64.5013 -38.9604 -20.5659 -71.1490 0.1941 87.9463 92.4165 68.4837 -6.9691 4.1360 18.6094 -1.6709 -136.6868 27.2156 -180.5589 178.0962 65.2119 -147.6692 -3.1328 -24.6442 -27.8934 -56.2079 0.8976 -162.6279 19.7022 19.5590 -47.3025 -0.4735 1.0804 -0.1104 -4.0704 11.3883 45.7018 -65.3723 -3.2402 118.9899 22.1290 -21.8928 47.2720 1.0296 1.2554 0.9886 -52.7061 21.5781 104.9070 -7.0717 56.2576 -14.7792 -4.6250 -20.2787 -3.3688 10.0981 -21.2453 25.2719 -14.5302 -19.2686 89.4987 4.3493 60.6055 -0.1139 -5.5617 -5.7832 0.9397 1.9125 -9.8417 -11.9415 
0.0000 93.1000 0.0000 63.0153 -38.7666 -20.8890 -71.1446 0.1799 87.9384 93.6251 67.9861 -7.2346 3.5155 18.4090 -2.3557 -136.0158 26.3980 -180.7681 178.4779 64.3470 -148.3832 -2.5940 -22.5570 -24.6081 -59.6485 2.9025 -163.8795 19.0611 15.1877 -51.7675 0.1167 0.9248 -0.5547 -4.1996 11.2253 47.2311 -67.1915 -2.7912 117.5422 22.1877 -15.4014 57.8276 1.1404 1.1371 0.9432 -54.0536 21.9393 104.7988 -6.1428 52.9941 -14.1857 -5.4178 -19.0315 -2.9980 10.0794 -21.2819 23.7787 -14.8537 -18.4315 88.6325 4.8485 61.1605 -0.2267 -6.4655 -7.4453 1.1731 2.0944 -10.1567 -11.7969 
0.0000 93.1000 0.0000 62.9535 -38.0885 -20.0824 -71.1398 -0.0323 87.9684 94.9458 67.4423 -8.8435 1.9595 18.1240 -1.7652 -136.1646 26.3356 -179.9775 178.7709 64.6086 -147.0174 -1.1280 -21.5529 -22.8328 -64.6305 4.0471 -164.7292 16.9300 9.9660 -58.8937 -0.0806 -0.2347 0.3127 -4.0584 11.1392 45.9641 -70.6259 -2.6627 116.1602 18.2925 -8.2946 67.9367 1.7720 -0.1049 1.3762 -56.7229 23.3560 103.6810 -5.4407 47.6532 -10.0350 -5.7657 -14.7416 -1.5749 9.8448 -20.9600 20.1961 -17.5127 -17.0415 87.5312 3.6072 61.6722 -1.3913 -6.0609 -9.6543 0.7427 1.3592 -9.9113 -8.9857 
0.0000 93.1000 0.0000 63.0508 -37.3865 -19.5076 -71.0911 0.1648 87.9359 92.7040 67.2320 -6.9962 2.2375 16.7618 0.4040 -134.1912 26.0785 178.3583 180.5537 64.6535 -148.3169 -1.4861 -19.3873 -21.2094 -68.6333 6.1473 -165.2433 15.2141 6.6952 -64.9758 0.3409 0.8099 0.0791 -3.7089 11.2117 42.5585 -76.1850 -5.0935 117.5614 16.7907 -4.4867 77.0679 0.3503 0.9361 0.9040 -57.5636 24.1891 100.6313 -2.4020 44.0689 -4.4424 -7.2532 -8.8468 -2.0769 7.7053 -18.8774 18.9378 -19.5653 -14.5134 84.7573 3.9438 60.1863 -3.3201 -3.7735 -12.0601 1.2279 0.9737 -8.4162 -8.4761 
0.0000 93.1000 0.0000 63.1630 -35.9300 -17.2613 -71.1069 -0.3911 88.0339 87.5001 68.0582 -5.4193 1.6368 16.6514 2.5826 -131.6015 27.0478 176.5148 179.1421 66.1684 -146.1557 1.7096 -18.7735 -20.4727 -73.3260 9.1033 -166.8925 12.6491 4.9188 -69.6366 -0.0424 -2.0582 2.4755 -3.2773 10.9418 39.4635 -83.1382 -8.9365 117.1725 18.5791 -2.1419 83.5008 2.5603 -2.3268 2.0697 -55.1563 24.9212 97.4476 -2.6434 43.6554 3.1013 -6.7932 -4.5417 1.0215 2.9690 -11.8496 16.9088 -22.6318 -11.6811 82.7529 3.2976 58.9115 -5.9817 -4.0679 -13.4367 -0.3728 0.9742 -6.9009 -7.6722 
0.0000 93.1000 0.0000 64.3545 -34.1059 -15.5149 -71.0486 0.2765 87.9513 86.1674 68.1062 -3.9397 2.0256 16.8079 4.3342 -129.9125 28.0005 172.1319 -177.8559 68.1559 -150.0868 -1.7182 -18.3878 -18.5656 -76.7995 11.2082 -169.3798 11.2498 2.7244 -73.0530 1.4173 1.3484 -0.2338 -3.0238 10.8363 35.7240 -92.6597 -11.4180 115.9164 19.1376 -0.9197 89.1337 -0.8683 1.5398 -0.0872 -50.0983 25.2913 96.8692 -2.2843 48.9872 6.3292 -6.3462 -4.0762 -1.9186 -1.0328 -5.1342 13.9646 -27.0750 -9.8664 80.1678 2.9736 56.5481 -6.2524 -3.3274 -14.8463 1.1094 1.1442 -6.8943 -8.2770 
